<?xml version="1.0" encoding="utf-8"?>
<!-- Generator: Adobe Illustrator 24.3.0, SVG Export Plug-In . SVG Version: 6.00 Build 0)  -->
<svg version="1.1" id="Layer_1" xmlns="http://www.w3.org/2000/svg" xmlns:xlink="http://www.w3.org/1999/xlink" x="0px" y="0px"
	 viewBox="0 0 220 220" style="enable-background:new 0 0 220 220;" xml:space="preserve">
<style type="text/css">
	.st0{fill:#297878;}
	.st1{fill:#FFFFFF;}
</style>
<rect class="st0" width="220" height="220"/>
<path class="st1" d="M145.5,170.7l-31.4-25c-2.4-1.9-5.8-1.9-8.2,0l-31.4,25c-4.3,3.5-10.7,0.4-10.7-5.2V57.8c0-3.6,3-6.6,6.6-6.6
	h79.3c3.6,0,6.6,3,6.6,6.6v107.7C156.3,171,149.9,174.1,145.5,170.7z M106.9,64l-7.5,15.3c-0.6,1.2-1.8,2.1-3.2,2.3L79.4,84
	c-3.4,0.5-4.8,4.7-2.3,7.1L89.3,103c1,1,1.4,2.3,1.2,3.7l-2.9,16.8c-0.6,3.4,3,6,6.1,4.4l15.1-7.9c1.2-0.6,2.7-0.6,3.9,0l15.1,7.9
	c3.1,1.6,6.7-1,6.1-4.4l-2.9-16.8c-0.2-1.4,0.2-2.7,1.2-3.7l12.2-11.9c2.5-2.4,1.1-6.6-2.3-7.1l-16.8-2.4c-1.4-0.2-2.5-1.1-3.2-2.3
	L114.4,64C112.9,60.9,108.4,60.9,106.9,64z"/>
</svg>
